<?xml version="1.0" ?><svg viewBox="0 0 24 24" xmlns="http://www.w3.org/2000/svg"><defs><style>.cls-1{fill:none;}.cls-2{fill:#0076f4;}.cls-3{fill:#005cc9;}.cls-3,.cls-4{fill-rule:evenodd;}.cls-4{fill:#fff;}.cls-5{fill:#00b7ff;}</style></defs><title/><g data-name="Layer 2" id="Layer_2"><g data-name="Layer 2" id="Layer_2-2"><g id="Message"><rect class="cls-1" height="24" width="24"/><path class="cls-2" d="M1,12C1,4,4,1,12,1S23,4,23,12,20,23,12,23,1,20,1,12"/><path class="cls-3" d="M16.27,16.48H9A1.72,1.72,0,0,1,7.3,14.76V10.81L6.08,8.72a.58.58,0,0,1,.5-.87h9.69A1.72,1.72,0,0,1,18,9.58v5.18A1.72,1.72,0,0,1,16.27,16.48Z"/><path class="cls-4" d="M16.27,16.15H9A1.72,1.72,0,0,1,7.3,14.42V10.47L6.08,8.38a.57.57,0,0,1,.5-.86h9.69A1.72,1.72,0,0,1,18,9.24v5.18A1.72,1.72,0,0,1,16.27,16.15Z"/><rect class="cls-5" height="0.92" rx="0.46" width="7.73" x="8.79" y="9.41"/><rect class="cls-5" height="0.92" rx="0.46" width="7.73" x="8.79" y="11.24"/><rect class="cls-5" height="0.92" rx="0.46" width="5.88" x="8.79" y="13.11"/></g></g></g></svg>