<?xml version="1.0" ?><svg id="Слой_1" style="enable-background:new 0 0 128 128;" version="1.1" viewBox="0 0 128 128" xml:space="preserve" xmlns="http://www.w3.org/2000/svg" xmlns:xlink="http://www.w3.org/1999/xlink"><style type="text/css">
	.st0{fill:#5385CD;}
</style><g id="XMLID_1_"><path class="st0" d="M33.1,57.1h4c0-11,9-20,20-20v-4C43.8,33.1,33.1,43.8,33.1,57.1z" id="XMLID_20_"/><path class="st0" d="M84.1,81.2c5.7-6.4,9.1-14.8,9.1-24c0-19.9-16.2-36.2-36.1-36.2C37.2,21.1,21,37.3,21,57.2   s16.2,36.2,36.2,36.2c9.3,0,17.8-3.5,24.2-9.3l22.9,22.9l1.4-1.4l1.4-1.4L84.1,81.2z M57.1,89.4C39.4,89.4,25,75,25,57.2   c0-17.7,14.4-32.2,32.2-32.2c17.7,0,32.1,14.4,32.1,32.2C89.3,75,74.9,89.4,57.1,89.4z" id="XMLID_270_"/></g></svg>